<svg id="Layer_1" data-name="Layer 1" xmlns="http://www.w3.org/2000/svg" viewBox="0 0 859.25 894.38"><path d="M241.44,358.62a4.38,4.38,0,0,0-3.38.25c-1.19.4-2.36.83-3.57,1.15-.65.18-1.49.39-2-.22-.67-.84.08-1.51.55-2.17a10.74,10.74,0,0,0,.63-1.2,4.61,4.61,0,0,0-3.16.93c-1,.54-1.9,1.16-2.87,1.7s-1.9,1-2.94,1.49c.84,1.6,2.22,2.34,3.38,3.28,2.38,1.93,4.82,3.78,7.14,5.77a16.91,16.91,0,0,1,4.55,5.91,9.73,9.73,0,0,1,.73,7.29c-.12.36-.47.82-.78.88a1.24,1.24,0,0,1-1-.55c-.92-1.55-1.78-3.14-2.61-4.74a47.39,47.39,0,0,0-5.23-8.52,17.33,17.33,0,0,0-14.3-6.43,4.58,4.58,0,0,0-4.69,3.4,18.62,18.62,0,0,0-.77,4.08c-.25,2.66.42,5.25.94,7.83.21,1.05.93,1.41,1.83.95a30.5,30.5,0,0,1,4.59-2,6.35,6.35,0,0,1,5.24.48,10.6,10.6,0,0,0,5.86,1.85,4.6,4.6,0,0,1,1.93.69,1.36,1.36,0,0,1,.35,1.83,3.71,3.71,0,0,1-1.87,1.59,11.08,11.08,0,0,1-4.47.89l-5.83-.34a33.68,33.68,0,0,0-3.75-.15,6.86,6.86,0,0,0-6.26,4,86,86,0,0,0-6.94,19.16,128.08,128.08,0,0,0-3.29,38.52c.56,8.77,2.05,17.4,5.52,25.57a10.9,10.9,0,0,1,.57,1.57.91.91,0,0,1-.16.74,1,1,0,0,1-.73.19,2.31,2.31,0,0,1-.77-.28c-4.58-2.09-9-.92-13.32.76-.45.18-1.13.44-1,1.15s.83.57,1.32.75c1.53.55,1.7,1.1.69,2.33-.71.85-1.49,1.66-2.27,2.44-1.29,1.28-2.62,2.5-3.9,3.78-1.08,1.08-2.16,2.17-3.15,3.33-1.93,2.29-3.35,4.81-3.14,7.94a2.55,2.55,0,0,1-1.89,2.85,26,26,0,0,0-5.74,3.37,21.65,21.65,0,0,1-5.9,3.06,10.45,10.45,0,0,1-2.45.26c-.5,0-.89-.74-.71-1.23a9.36,9.36,0,0,1,2.7-3.66c1.45-1.3,3-2.54,4.52-3.7a8.71,8.71,0,0,0,3.74-5.31,27,27,0,0,1,1.68-4.71,15.89,15.89,0,0,1,4.86-6.66c1.75-1.37,1.69-1.51.19-3.21-1-1.08-.94-1.51,0-2.33a14.35,14.35,0,0,1,5.14-2.7c2.1-.7,4.28-1.2,6.4-1.86a36.11,36.11,0,0,0,4.29-1.58c2.1-1,2.27-1.39,1.75-3.57-.46-1.89-1-3.76-1.47-5.65-.77-3.1-1.7-6.18-2.2-9.32a3.56,3.56,0,0,0-3.12-3.34,35.39,35.39,0,0,0-3.73-.3c-.79-.07-1.71.14-2.19-.77-.38-.74.3-2.08,1.42-2.75a9.83,9.83,0,0,1,1.9-.85c.52-.19,1.09-.21,1.62-.36,3.49-1,3.76-1.33,3.8-4.86,0-1.81,0-3.62,0-5.43-.06-3.11-.64-3.63-3.8-3.15a53.44,53.44,0,0,0-10.08,2.57,86.6,86.6,0,0,1-8.33,2.64,12.85,12.85,0,0,1-8.19-.32c-1-.41-1.2-1.14-.57-2a16.79,16.79,0,0,1,5.48-4.42,41.87,41.87,0,0,1,8.51-3.36c3.88-1.09,7.76-2.17,11.62-3.31a33.35,33.35,0,0,0,8.06-3.38,3.07,3.07,0,0,0,1.57-3.87,6.2,6.2,0,0,0-3.35-4.05c-1.72-.91-3.52-1.67-5.27-2.52a7.92,7.92,0,0,1-4.18-3.88c-.57-1.29-.1-2.2,1.36-2.24,2.79-.08,5.57-.15,8.35,0a5.08,5.08,0,0,0,4-1.74,18.26,18.26,0,0,0,4.92-9.48,44.31,44.31,0,0,0,.85-9.12,47.22,47.22,0,0,1,.71-8.72,17.38,17.38,0,0,1,7.18-11.33,32.62,32.62,0,0,1,9.29-4.64c4.76-1.51,9.58-2.86,14.39-4.22a82.48,82.48,0,0,0,10.3-3.34c1.27-.55,2.51-1.17,3.75-1.8a8.76,8.76,0,0,0,4.95-6.67c5.36-27.1,17.36-51.21,33.4-73.48,5.86-8.13,12-16,18.4-23.75.27-.32.52-.65.8-1,.64-.69,1.12-1.75,2.28-1.54s1.34,1.27,1.56,2.23c.13.51.26,1,.41,1.65,2.21-1.23,4.26-2.39,6.31-3.52a1.55,1.55,0,0,0,.72-2.12,90.83,90.83,0,0,1-2.8-10A124.83,124.83,0,0,1,314,209.92a183.57,183.57,0,0,1,0-20.85,29.86,29.86,0,0,1,1.33-8.2,9.05,9.05,0,0,0,.54-4.09,26.14,26.14,0,0,1,2.21-13.43,15.36,15.36,0,0,0,1.21-5.23,25.36,25.36,0,0,1,2.31-9.26,19.13,19.13,0,0,0,1.36-9c-.47-12.09-1.47-24.16-1.33-36.28A88.73,88.73,0,0,1,324.14,83a27.21,27.21,0,0,1,1.29-4A2.61,2.61,0,0,1,329.57,78a7.06,7.06,0,0,1,2.31,2.91c.95,2,1.81,4.06,2.67,6.11,1,2.3,1.86,4.65,2.9,6.92a18.11,18.11,0,0,0,2,3.17c.8,1.1,1.64,1,2.18-.14a20.13,20.13,0,0,0,1.71-5.56c.6-4,1.17-8,1.68-12A58,58,0,0,1,346.68,70a7.34,7.34,0,0,1,2.71-4.09,2.46,2.46,0,0,1,3.88.81,4.35,4.35,0,0,1,.35.76c2.62,7.49,6.27,14.56,9.28,21.88.84,2.06,1.63,4.14,2.35,6.25a29.91,29.91,0,0,1,1.83,11.05c0,.55.05,1.11,0,1.66-.37,5.91,2.24,10.47,6.39,14.35a38.75,38.75,0,0,0,7.07,5.15,17.68,17.68,0,0,1,5.25,4.71c2.67,3.53,5.38,7,7,11.24,2.23,5.75,6,10.66,9.83,15.43,2.63,3.24,5.33,6.42,8,9.63a73.61,73.61,0,0,1,11.14,17.06,4.43,4.43,0,0,0,3,2.6c1.33.4,2.68.75,4,1.23,2.92,1.1,5.57,2.57,7,5.57a2,2,0,0,0,2.38,1.16c6.2-.83,12.36-1.88,18.47-3.2a16.44,16.44,0,0,0,2.4-.68,1.94,1.94,0,0,0,.49-3.15,3.63,3.63,0,0,0-2.61-1.12c-1.39,0-2.79,0-4.17.15a12.58,12.58,0,0,1-4.15-.17c-.68-.17-1.4-.34-1.6-1.12-.26-1,.62-1.13,1.19-1.38,3.43-1.51,6.89-3,10.33-4.47a13.55,13.55,0,0,0,1.49-.71.88.88,0,0,0,.36-.67.83.83,0,0,0-.49-.62c-1.47-.37-3-.69-4.45-1a4,4,0,0,1-2.2-1.1,2.23,2.23,0,0,1-.63-1.9c.14-.89.87-1,1.57-1,1.52-.14,3.05-.23,4.57-.39s2.28-.6,2.16-1.35c-.19-1.14-1.15-1-1.94-1.11-3.29-.56-6.58-1.09-9.85-1.71a28.44,28.44,0,0,1-3.14-1c.06-.39,0-.74.16-.88,2.21-2.13,2.22-2.13.29-4a9.62,9.62,0,0,1-2.61-3.2,1.22,1.22,0,0,1,0-.8,1,1,0,0,1,1-.56,10,10,0,0,1,4,1.23c1.89.86,3.73,1.85,5.62,2.75a13.59,13.59,0,0,0,5.21,1.36c1.62.09,2.22-.81,1.63-2.39a7.84,7.84,0,0,0-2.16-3c-1.23-1.13-2.54-2.17-3.76-3.31a43.54,43.54,0,0,1-3.52-3.54,10.93,10.93,0,0,1-2.6-6.89,23,23,0,0,1,1.13-8.64,60.86,60.86,0,0,1,2.79-7c4.12-8.09,6.91-16.68,9.73-25.27,3.3-10,6.68-20,10.76-29.81a152.67,152.67,0,0,1,19.34-33.52A84.05,84.05,0,0,1,508.4,25.51a22.82,22.82,0,0,1,3.1-2.1c2.07-1.09,3.62-.79,5.26.91a17.6,17.6,0,0,1,3.71,6.47,55.63,55.63,0,0,1,2.71,12.61c1,8.44,1.34,16.91,1.8,25.38.63,11.53,1.48,23,2.14,34.57.57,10,1.46,20,1.15,30a73,73,0,0,1-1.68,14.06,47.26,47.26,0,0,1-1.78,6,24.72,24.72,0,0,1-15.94,15.38c-1.16.4-2.34.74-4.21,1.33a8.26,8.26,0,0,0,5.29-.26,18.46,18.46,0,0,1,5.76-.7c.91,0,2.07-.08,2.42,1.16.28,1-.75,2.3-2.16,2.65-1.15.29-2.34.4-3.66.61.73.94,1.44.59,2.09.59.82,0,1.66-.12,2.48,0a2,2,0,0,1,1.91,1.85c0,.94-.71,1.57-2,1.68-1.93.18-3.88.26-5.8.56a44,44,0,0,0-4.35,1.11c-.08,1,.59.9,1.07.9,2.08,0,4.17-.07,6.25,0a1.24,1.24,0,0,1,.82,2.14,3.71,3.71,0,0,1-3.22,1.61c-1.94,0-3.89-.05-5.84,0a30.87,30.87,0,0,0-3.73.23,1.15,1.15,0,0,0-.74.87,1.24,1.24,0,0,0,.76.88,19.51,19.51,0,0,0,5.81.35c2.5,0,5-.09,7.5-.08a1.44,1.44,0,0,1,1,.56,1.26,1.26,0,0,1-.2,1.53,4.31,4.31,0,0,1-2.82,1.61,21.72,21.72,0,0,1-5.4.27c-1.8-.17-3.61-.2-5.42-.25a12.09,12.09,0,0,0-2.08.11c-1.27.18-2.32.92-2.2,1.55a2.67,2.67,0,0,0,2,2,8.1,8.1,0,0,0,4.48.73c6.22-1.35,12.13.33,18.1,1.65,9,2,17.6,5.09,26.25,8.13,6.43,2.25,12.87,4.45,19.31,6.66,1,.35,2.13.62,3.21.88a.8.8,0,0,0,.68-.29,1,1,0,0,0,0-.78,4.8,4.8,0,0,0-2.38-2.24c-1.85-1-3.75-1.82-5.62-2.73s-3.76-1.8-5.6-2.77a1.33,1.33,0,0,1-.59-1c0-.3.45-.65.79-.82a5.24,5.24,0,0,1,3.66-.22l8.48,1.78c.3-1-.42-1.36-.88-1.77a32,32,0,0,0-7.71-4.91c-2.5-1.23-5-2.39-7.5-3.64a22.46,22.46,0,0,1-5.78-4.07c-.75-.74-2-1.51-1.52-2.71s1.93-.63,3-.5a21.36,21.36,0,0,1,8.12,3.11c1.67,1,3.35,2,5.07,2.88a12,12,0,0,0,2.35.84.84.84,0,0,0,.7-.28.88.88,0,0,0,.08-.76,11.18,11.18,0,0,0-3.88-4.28c-1.67-1.24-3.43-2.37-5.1-3.61a13.33,13.33,0,0,1-4.17-4.6c-.29-.59-.83-1.25-.21-1.88s1.34-.32,2-.12a20.21,20.21,0,0,1,6.21,3.35A50.2,50.2,0,0,1,567.4,185c1.33,1.42,2.67,2.83,4.07,4.19.88.84,1.77.45,2.06-.82a9.41,9.41,0,0,0-1.06-6.86c-1.16-2.05-2.52-4-3.85-5.94-1.1-1.61-2.29-3.15-3.44-4.72-3.43-4.73-3.93-10-2.71-15.52a48.78,48.78,0,0,1,4.27-11.29,127.86,127.86,0,0,1,7.94-13.71c7.88-11.77,13.5-24.64,18.18-37.9a141.26,141.26,0,0,1,13-27.42c11.76-19.1,24.52-37.48,39.34-54.36,2.2-2.51,4.53-4.91,6.82-7.34a21.18,21.18,0,0,1,2.1-2c2.11-1.74,3.35-1.73,5.52.09a26.75,26.75,0,0,1,6.18,7.8,52.21,52.21,0,0,1,5,14.11A131.08,131.08,0,0,1,673.4,41c.72,8.59,1.21,17.2,1.9,25.8.63,7.76,1.43,15.5,2.1,23.26.37,4.3.68,8.6.89,12.91.62,12.78,1.32,25.56.93,38.37s-1.31,25.56-4.08,38.1a92.13,92.13,0,0,1-6,18.19,6.74,6.74,0,0,1-4.86,4.07A92.93,92.93,0,0,1,650.72,204a95.43,95.43,0,0,0-11.52,1.79,33.6,33.6,0,0,0-4.71,1.62,1.29,1.29,0,0,0-.72.88,1.35,1.35,0,0,0,.58,1,7.31,7.31,0,0,0,3.95,1.12,63.14,63.14,0,0,0,11.25-.47,9.81,9.81,0,0,1,4.54,0,1.19,1.19,0,0,1,1,1.17,1.4,1.4,0,0,1-.56,1,6.85,6.85,0,0,1-2.28,1c-2.46.41-5,.72-7.43,1-3.46.36-6.92.64-10.37,1-.35,0-.67.41-1,.63.23.28.42.72.72.83a26.73,26.73,0,0,0,6.07,1.38c4.56.51,9.12,1,13.65,1.67a18.23,18.23,0,0,1,7.84,2.64,1,1,0,0,1-.14,1.69c-.25.11-.52.18-.78.28a10.92,10.92,0,0,1-3.66.76,74.93,74.93,0,0,1-12.06-.54c-4.61-.66-9.25-1.65-14.51-.95,7.17.5,13.07,3.36,19.09,5.84.27.11.43.64.51,1,0,.11-.38.37-.63.48a7.69,7.69,0,0,1-4.5.39c-2.86-.56-5.74-1-8.58-1.67a16.55,16.55,0,0,0-4.14-.42.8.8,0,0,0-.62.38.88.88,0,0,0,.13.75,10.18,10.18,0,0,0,4.2,2.63c2.47.93,5,1.71,7.49,2.56a26.64,26.64,0,0,1,6.51,2.75,1.32,1.32,0,0,1-.12,2.35,4.07,4.07,0,0,1-3.19.59,14.28,14.28,0,0,1-4-1.17c-.18,1.26.67,1.32,1.18,1.59,6.46,3.55,12.94,7.05,19.39,10.61,8.42,4.65,16.56,9.71,23.84,16.06,2.84,2.48,5.53,5,6.87,8.74a13.33,13.33,0,0,0,2.72,4.18c6,6.63,10.71,14.2,15.92,21.4,3.75,5.19,7.52,10.34,10.46,16.07,1.19,2.31,3.12,4.25,4.74,6.33.87,1.11,1.7,2.14,1.39,3.74-.23,1.15.5,2.14,1.14,3.05,3.56,5.14,6.65,10.61,10.51,15.55a70,70,0,0,1,6.28,9.34,24.84,24.84,0,0,1,2.35,5.33c.42,1.54,0,2.09-1.57,1.85-1-.14-1.9-.3-2.69-.43-.65.44-.46.82-.25,1.17,8.78,14.75,15.35,30.54,21.87,46.36,4.19,10.15,8.54,20.24,12,30.67a141.71,141.71,0,0,1,6,23.84,54.93,54.93,0,0,1,.6,7.89c0,4,0,8.07-.05,12.1a45.56,45.56,0,0,0,6.21,24.34c1.61,2.76,3.13,5.58,4.8,8.31a147.25,147.25,0,0,1,11.73,24.41c.74,1.94,1.32,3.95,1.9,5.95a5.9,5.9,0,0,1,0,4.1c-.71,1.56-.08,2.63.73,3.82,1.26,1.84,2.53,3.67,3.62,5.61.89,1.59.62,2.12-1.09,3.31-1.27.88-1.32.93-.7,2.31a38.31,38.31,0,0,0,2,4.11c2.24,3.68,2.06,7.7,1.77,11.74a.88.88,0,0,1-.47.61c-.44.18-.75-.11-1-.49-.4-.73-.8-1.46-1.17-2.21-3.9-7.84-7.7-15.75-12.79-22.93a11.53,11.53,0,0,1-.86-1.43c-.46-.88-.22-1.45.8-1.88.25-.11.55-.09.81-.18.83-.29,1.1-.93.66-1.63-.8-1.3-1.71-2.53-2.6-3.77-2.68-3.72-5.45-7.39-8-11.17A33.88,33.88,0,0,1,787,528.1a2,2,0,0,1,.36-2.16c2.53,2.37,4.38,5.31,6.7,7.82s4.45,4.94,6.89,7.14c.92-.59.35-1.07.14-1.47-2.2-4.19-4.33-8.41-6.67-12.52-6.2-10.89-11.27-22.34-16.55-33.68-3.17-6.8-6.48-13.54-9.19-20.55a71.34,71.34,0,0,1-4.22-14.81,2.83,2.83,0,0,1,.26-2.39c.36-.44,1.54.17,2.37,1.24a28.77,28.77,0,0,1,3.56,6.59c1.52,3.58,2.93,7.22,4.48,10.79.77,1.78,1.75,3.47,2.64,5.19a1,1,0,0,0,1,.62c.54-.06.6-.53.58-.93-.1-2.08-.12-4.18-.36-6.25a213.69,213.69,0,0,0-9.49-42.66c-5.39-16.27-12.47-31.83-19.94-47.22-1.33-2.75-2.72-5.48-4-8.26a35.18,35.18,0,0,0-6.27-9.78c-1.11-1.15-2.66-2.54-1.62-4.34.89-1.53,2.72-1,4.22-.94.54,0,1.07,0,1.54,0a1.38,1.38,0,0,0-.33-1.63c-4.24-5-7.38-10.77-10.7-16.4q-2.76-4.67-5.7-9.23a40.84,40.84,0,0,0-7-8.27c-1.34-1.2-1.34-1.32-.16-3a1.88,1.88,0,0,0,.16-2.29,31.87,31.87,0,0,0-1.9-2.74,99.33,99.33,0,0,0-10.55-11.81,34.09,34.09,0,0,1-6.46-7.61c-.42-.76-.66-1.59.54-2a.68.68,0,0,0,.44-1,4,4,0,0,0-.65-1.06,51.25,51.25,0,0,0-3.75-3.91c-3.66-3.21-7.39-6.34-11.12-9.47a80.2,80.2,0,0,1-8.78-8.31,8.21,8.21,0,0,1-1.09-1.74c-.07-.16.11-.48.23-.69a.39.39,0,0,1,.36-.12,20.19,20.19,0,0,1,2.68,1.06c2.2,1.2,4.34,2.5,6.51,3.74.45.26.85.77,1.59.31a18.65,18.65,0,0,0-4.36-4.37,94.34,94.34,0,0,0-15.39-10c-6.19-3.16-12.44-6.19-18.7-9.21-7.53-3.63-14.93-7.46-21.65-12.47a1,1,0,0,0-1.32-.15c.52,1.29,2,1.77,2.73,2.81a1.35,1.35,0,0,1-.85,2.22,11.25,11.25,0,0,1-2.9,0c-3.24-.55-4.84-2.76-4.27-6a27.22,27.22,0,0,1,1.32-4.38,19.79,19.79,0,0,1,1.57-3.4,19.4,19.4,0,0,0,2.44-9.12,88.06,88.06,0,0,1,1.09-10.78c1.12-5.81.58-5.57,6.71-6.61,7.12-1.22,14.34-1.76,21.4-3.35,2.16-.49,4.28-1.17,6.43-1.74a7.27,7.27,0,0,0,5-4.53,66.47,66.47,0,0,0,4.44-15.6c1-6.47,1.41-13,1.81-19.51,1.16-18.77,1.06-37.55.56-56.33-.18-6.66-.82-13.32-1.28-20-.32-4.71-.7-9.43-1.06-14.14a261.06,261.06,0,0,0-4.22-33.08,83,83,0,0,0-6.78-21,47,47,0,0,0-3-5,1.58,1.58,0,0,0-2.53-.32c-.89.67-1.73,1.41-2.55,2.16A75.61,75.61,0,0,0,641.17,22.5c-11.23,16.24-22.68,32.34-33.34,49-5.67,8.84-9.69,18.44-13.45,28.18q-2.26,5.84-4.49,11.67a138.2,138.2,0,0,1-11.18,22.82,147.94,147.94,0,0,0-7.5,13.49,47.69,47.69,0,0,0-3.28,8.56,16.06,16.06,0,0,0,.75,10.61,47.64,47.64,0,0,0,4.34,7.6c1.77,2.66,3.54,5.33,5.18,8.07a26.85,26.85,0,0,1,3.5,12.32,58.49,58.49,0,0,1-1.12,14.52q-1.26,6.56-2.33,13.13a4,4,0,0,1-2.54,3.47,28.31,28.31,0,0,1-13.44,2.22,1.83,1.83,0,0,1-1.88-1.34,1.87,1.87,0,0,1,1.22-2.32,11.29,11.29,0,0,1,2.46-.25c1.11,0,2.22.13,3.33.18.58,0,1.19-.08,1.36-.7.26-.93-.5-1.15-1.15-1.36a19.3,19.3,0,0,0-8.68-.44,28.36,28.36,0,0,1-7.07.23,1.24,1.24,0,0,1-1.22-.94,1.43,1.43,0,0,1,.75-1.37,11.78,11.78,0,0,1,6.73-1.88c2.36-.1,4.73.06,7.09.1,1,0,1.94,0,2.91,0a.44.44,0,0,0,.47-.55.73.73,0,0,0-.15-.36,2.66,2.66,0,0,0-.64-.52c-11.15-5.35-22.22-10.87-34.09-14.55a104,104,0,0,0-27.82-4.82c-5.15-.16-10.29-.59-15.43-.61-9,0-18.06.58-27.07,1.29-7.91.62-15.74,1.73-23.59,2.8-1.92.26-3.84.61-5.74,1-.35.07-.64.43-1,.69,1.06,1,2.42.87,3.55,1.32a1.16,1.16,0,0,1,.32,2,19.18,19.18,0,0,1-9.89,4.07c-4.39.66-8.81,1.18-13.23,1.62a25.94,25.94,0,0,0-11.69,4c-3.27,2.12-6.56,4.2-9.84,6.3a13.9,13.9,0,0,1-2.12,1.33c-1.31.54-2.74,2.36-4,1-1.08-1.16.23-2.88.88-4.21a15.8,15.8,0,0,1,7.31-7.18,40,40,0,0,1,10.29-3.28c3.94-.81,7.89-1.62,11.81-2.51a21.46,21.46,0,0,0,6.88-2.92,13.86,13.86,0,0,0,5.69-7,2.43,2.43,0,0,0-1.05-3.23,11.38,11.38,0,0,0-4.71-1.57,4.7,4.7,0,0,1-3.77-2.87c-3.52-7.32-8.33-13.81-13.34-20.14a186.43,186.43,0,0,1-16.28-23.71,89,89,0,0,0-6-9c-4.4-5.95-9.91-10.51-17.13-12.68-1.89-.57-2.61-1.62-2.61-3.62a77.11,77.11,0,0,0-4.57-24.91c-1.36-3.94-2.7-7.89-4.11-11.81a88.82,88.82,0,0,1-3-10.85,1.23,1.23,0,0,0-.86-.75,1.31,1.31,0,0,0-1.06.47,7.2,7.2,0,0,0-1.09,3.11c-1.6,8.75-3.26,17.48-4.85,26.23-1.92,10.53-3.55,21.11-5.9,31.56a8.11,8.11,0,0,1-1.36,3.81c-1.21-.53-1.29-1.54-1.38-2.49a35.51,35.51,0,0,1,.21-8.74c.52-3.29,1-6.6,1.62-9.87a48.63,48.63,0,0,0,.64-7.89,18.85,18.85,0,0,0-3-10.69c-.36-.59-.74-1.17-1.12-1.76-1-1.51-2.05-3-2.95-4.55s-1.59-3.16-2.51-5a21.77,21.77,0,0,0-2.59,9,104.35,104.35,0,0,0,.31,20.83A193,193,0,0,1,328,137.49a24.66,24.66,0,0,1-2.7,11.23,36.89,36.89,0,0,0-2.58,6.14c-.75,2.5-.55,4.87,1.31,6.59,3.39,3.14,3.44,6.72,2.1,10.69-.31.92-.54,1.87-.87,2.78a4.67,4.67,0,0,1-2.65,3.06c-3,1.11-4.1,3.53-4.58,6.43a65.39,65.39,0,0,0-1.1,12,170.21,170.21,0,0,0,.91,18.75c1.26,9.63,4.83,18.26,11.44,25.46,3.56,3.87,2.94,3.36,6.59.6,5.91-4.48,12.46-7.85,19.12-11,7.29-3.46,14.58-6.89,21.86-10.36,1.63-.78,3.2-1.67,4.82-2.46a1,1,0,0,1,1.36,1,6.88,6.88,0,0,1-2,4.47,15.62,15.62,0,0,1-5,3.74q-4.31,2.08-8.69,4c-4.45,2-9,3.77-12.61,7.2-1.18,1.12-2.11,1-3.61-.4-.74-.7-1.23-.91-2.11-.47a28.8,28.8,0,0,0-5.16,3.51c-1.73,1.41-3.43,2.85-5.24,4.14a15.71,15.71,0,0,1-6.42,2.88c-2.87.49-3.46.18-4.72-2.62a1.24,1.24,0,0,0-1.93-.7,17.35,17.35,0,0,0-5.34,4.6c-1.14,1.4-2.25,2.83-3.47,4.16a1.43,1.43,0,0,1-2.5-.85c-.18-1.21-.19-2.43-.28-3.65-1.24,0-1.28,1.08-1.69,1.71-1.2,1.87-2.19,3.88-3.44,5.7a8.37,8.37,0,0,1-4.54,3.52.9.9,0,0,1-1.12-.86c-.12-1.69.66-3.23.88-5.17-1.24.26-1.61,1.19-2.11,1.87a320.77,320.77,0,0,0-20.4,32,239.47,239.47,0,0,0-15,31.17c-.4,1-.78,2.08-1.19,3.11a4,4,0,0,0,.3,3.92,7.62,7.62,0,0,1,.72,5.25c-.5,3.62-2,6.93-2.91,10.43a.86.86,0,0,1-1.59.3c-.42-.53-.73-1.14-1.32-2.09-.48,3.06-2.31,4.89-4.06,6.78-2.06,2.24-4.51,4.13-6.25,6.95,1,1,1.93,2,3,2.82a7.78,7.78,0,0,0,2.16,1.17c.62.24,1.46-.21,2,.39s0,1.31-.1,2a1.79,1.79,0,0,0,1.24,1.92c.48.21,1.63-.16,1.18,1-.17.42-1.31.84-.9,1.12a22,22,0,0,0,3.72,1.55c.42.18.43,1.14.08,1.48a3.06,3.06,0,0,1-2.63,1c-1.24-.16-2.48-.35-3.71-.53-2.68-.4-2.68-.4-1.52-3.25-1.67,0-3.26,0-4.85,0s-3.05-.19-4.58-.22a19.52,19.52,0,0,1-6.1-1.26,1.41,1.41,0,0,1-.79-.9,1.26,1.26,0,0,1,.72-1.36C239.78,359.54,240.78,359.76,241.44,358.62ZM321,165.41c-2.78,2.85-2.67,6.4-2.35,10a1.3,1.3,0,0,0,.75.87,2.06,2.06,0,0,0,2.21-.7c.86-.85,1.25-1.91.63-2.54-2.25-2.3-2-4.95-1.34-7.7.33,0,.7.13.78-.36,0,0-.24-.12-.27-.08A5.47,5.47,0,0,0,321,165.41Zm140.68,19.72c2.65,2.72,2.67,2.72,3.19,6.19.15,1.05.78,1.37,1.7,1.41,7.5.28,15,.17,22.51,0a3.63,3.63,0,0,0,3.32-2.09,30.6,30.6,0,0,0,3.89-10.92,29.79,29.79,0,0,0,.35-7.89,3.2,3.2,0,0,1,1.78-3.45c1.81-1,3.6-2.11,5.43-3.1,2.45-1.31,4.94-2.54,7.39-3.85a42.07,42.07,0,0,0,7.82-5.5,10.24,10.24,0,0,0,3.62-9.29c-.29-2.9-.43-5.82-.45-8.74-.11-22.52-.87-45-2.5-67.48-.91-12.48-2.2-24.91-3.67-37.33a27.42,27.42,0,0,0-.88-4.49,2,2,0,0,0-3.28-1.28,25.73,25.73,0,0,0-3.53,2.89,110.5,110.5,0,0,0-16.06,20.19,217.3,217.3,0,0,0-20.74,42.18c-5,13.55-9.22,27.38-14.6,40.79a42.56,42.56,0,0,0-1.83,6.4c-1.08,4.77-.23,9.12,3.13,12.82,1.3,1.45,2.69,2.82,4,4.28a42.58,42.58,0,0,1,3.4,4.21,9.33,9.33,0,0,1,1.08,9.13,14.12,14.12,0,0,0-1.05,7.75c.51,3.07-.51,5.12-3.32,6.37C462.07,184.4,462,184.72,461.63,185.13ZM248.12,356l-.31.1a2,2,0,0,0,.42.19c.05,0,.13-.11.2-.17Z"/><path d="M18,744.27c2-2.47,4-5,6.11-7.4a46.88,46.88,0,0,1,3.46-3.59c.37-.35,1.2-.76,1.44-.59.77.53.2,1.25-.14,1.8a148,148,0,0,0-15.21,35.56c-.31,1.06-.58,2.14-.89,3.21a1.77,1.77,0,0,0,.34,1.93c1,1,.71,2,.26,3.06C10.23,785.88,8.92,794,7.23,802a23.82,23.82,0,0,0-.86,6.18,1.34,1.34,0,0,0,1.24,1.4,10.71,10.71,0,0,1,2,.32,1.11,1.11,0,0,1,.78,1.31,29.76,29.76,0,0,1-1,3.15A71.91,71.91,0,0,0,4.67,835c-.14,1.94-.44,3.85,1.59,5.24,1,.64.88,2,.79,3.11-.14,1.94-.47,3.88-.51,5.82-.12,6-.14,12-.2,17.94a19.35,19.35,0,0,0,.71,4.52,12.7,12.7,0,0,1,.45,5,3.2,3.2,0,0,1-3,3A1.74,1.74,0,0,1,2.17,878c-.38-3.45-.72-6.91-.95-10.38q-.58-9.15-1-18.33a138.72,138.72,0,0,1,.63-23.32,123.42,123.42,0,0,0,.87-13.32,81.85,81.85,0,0,1,1.71-15.3c1.94-9.25,3.35-18.61,5.86-27.74,1.37-5,2.87-9.87,4.61-14.71.36-1,.71-2.05,1-3.05-1.16-.69-2,0-2.93.19-1.16.19-1.71-.32-1.32-1.31.61-1.54,1.34-3,2-4.6,2.65-6.72,5.33-13.44,7.9-20.19,3.88-10.13,8.3-20,12.53-30,.65-1.53,1.24-3.09,1.84-4.65.15-.39.24-1-.18-1.12-2.32-.85-1.08-2-.31-3.12,1-1.48,2.1-3,3.24-4.35a55.21,55.21,0,0,0,9.54-17.94c1.29-4,2.61-7.92,3.92-11.88a84.89,84.89,0,0,1,5.6-13c4.35-8.24,8.87-16.38,13.77-24.31.5-.8,1.22-1.5,1.21-2.57-1.06-.57-1.55,1.13-2.57.63A1.82,1.82,0,0,1,69,612a25.84,25.84,0,0,1,6.33-11.59c1.88-2,3.91-4,5.83-6,1.25-1.31,2.43-2.67,3.63-4,.45-.52,1.1-1.2.78-1.82-.49-.93-1.42-.38-2.21-.23-1.15.21-1.63-.28-1.28-1.26a33.17,33.17,0,0,1,3.62-7,60.39,60.39,0,0,1,8.22-10,120.9,120.9,0,0,0,8.19-8.9,48.36,48.36,0,0,1,4.94-5.08,16.22,16.22,0,0,1,9-4.06,3.27,3.27,0,0,1,1.16.3c-.13.37-.15.86-.41,1.09-.62.54-1.38.93-2,1.45-1.74,1.39-3.45,2.81-5.18,4.21a11.17,11.17,0,0,0-4,5.18,7.54,7.54,0,0,1-2.94,3.46,26.1,26.1,0,0,0-7.19,7.43c-.92,1.57-2.55,2.54-3.91,3.73-1,.89-2.29,1.57-2.82,2.88.53.88,1.28.55,1.91.58a3.34,3.34,0,0,1,3.31,2.09c.43,1.09,1.22,1,2,.65a32.55,32.55,0,0,1,9.18-2.59,20.85,20.85,0,0,1,2.08-.18,3.5,3.5,0,0,1,3.35,2.08,46.07,46.07,0,0,1,1.91,5.06,93.23,93.23,0,0,1,3,16c1,8.14,1.94,16.29,2.17,24.51a26.1,26.1,0,0,1-.17,4.15c-.31,2.21-1.86,3.07-4,2.24a13.22,13.22,0,0,1-4.48-3c-1.77-1.77-3.46-3.62-5.14-5.48s-3.26-3.79-5-5.62c-3.53-3.77-7.33-4.63-12.43-2-2.08,1.1-4.07,2.39-6,3.68-3.63,2.33-7.22,4.71-11.32,6.18a8.27,8.27,0,0,0-3.36,2.38,34,34,0,0,0-4.34,6.11c-4,7.18-6.87,14.88-10,22.46a1,1,0,0,0,.31,1.4c1.55,1.13,1.58,1.21.91,2.22-1.39,2.08-2.85,4.12-4.29,6.16-1.94,2.73-3.85,5.43-3.89,9A8.53,8.53,0,0,1,43,683.73a156.63,156.63,0,0,0-9.09,20.12c-.51,1.29-1.21,2.54-.56,4a2.41,2.41,0,0,1-.31,2c-.33.77-.71,1.51-1.08,2.25a203.4,203.4,0,0,0-8.36,18.64c-1.27,3.37-2.93,6.6-4.39,9.91-.5,1.12-1.31,2.17-1.06,3.52a.46.46,0,0,0-.12-.12C18.52,744.37,18.1,743.71,18,744.27ZM74.42,606.93l1.13-.87c1.77.22,3-1.34,4.73-1.36A1,1,0,0,1,81,605a.81.81,0,0,1,.11.74,24,24,0,0,1-1.49,2A65.59,65.59,0,0,0,72,619.64a47.55,47.55,0,0,0-1.83,4.64c-.14.37-.18.93.27,1.11a1.61,1.61,0,0,0,1.16-.08,30.62,30.62,0,0,0,3.23-1.89c3-2.07,5.88-4.21,8.84-6.28a37.14,37.14,0,0,1,6.07-3.62,5.21,5.21,0,0,1,5.84.65,23.9,23.9,0,0,1,2.53,2.17c2,2.12,4,4.28,5.92,6.45,2.23,2.49,4.41,5,6.65,7.49a9.68,9.68,0,0,0,2.86,2.38.85.85,0,0,0,1.22-.7,58.69,58.69,0,0,0-.38-6.23c-.77-5.23-1.22-10.48-1.48-15.76a92.14,92.14,0,0,0-1-10,49.39,49.39,0,0,0-2-8.51c-1.67-4.82-3.88-6.35-9.27-4.44a51.26,51.26,0,0,0-22.74,15.61c-.88,1.05-2,2-2.21,3.48-.42.31-.84.62-1.26.91.24-.15.28.06.14.06C74,607.12,74.62,607.45,74.42,606.93Z"/><path d="M158.18,514.31c1.76.11,3.22-.79,4.74-1.45,5.61-2.43,11.18-4.95,16.81-7.34a69.09,69.09,0,0,1,18-5.15,56.87,56.87,0,0,1,20.31.82c.4.1.79.26,1.19.4,1.16.42,1.21.92.12,2.07-.28.29-.67.44-.47,1.18,5.41,0,10.44,2,15.51,3.78a24.62,24.62,0,0,0,3.55,1.18A47.64,47.64,0,0,1,249.59,514c5.91,2.78,12,5.18,18,7.79a90.31,90.31,0,0,1,13.26,7c6.68,4.38,12,9.95,14.93,17.47.55,1.39,1.23,2.47,2.84,2.69,2.68.37,4.45,2.13,6.08,4.08,1.34,1.6,2.59,3.27,3.94,4.86a12.17,12.17,0,0,0,7.69,4.61,3.12,3.12,0,0,1,2.52,1.88c3.76,7.05,8.85,13.13,14,19.18,4.6,5.4,9.22,10.78,13.37,16.55a72.48,72.48,0,0,1,10.89,21.93c1,3.47,2.18,6.89,3.22,10.36a86,86,0,0,0,9,20.13c1.94,3.21,3.72,6.52,5.52,9.82a28.86,28.86,0,0,1,3.31,13.22,116.42,116.42,0,0,1-1.35,19.12,104.94,104.94,0,0,0-.89,12.89,33.32,33.32,0,0,0,1.91,11.47c.84,2.35,1.6,4.74,2.27,7.15a16.51,16.51,0,0,1,.38,7.43.85.85,0,0,1-1.29.52,15.61,15.61,0,0,1-2-2.11,28.46,28.46,0,0,1-4.49-10.69,45.69,45.69,0,0,1-1.07-9.1c-.06-7.1,0-14.19.64-21.27a103.84,103.84,0,0,0,.16-16.26,57.77,57.77,0,0,0-5.36-20c-2.07-4.56-4.25-9.06-6.49-13.54a170.73,170.73,0,0,1-8.6-19.43,58.13,58.13,0,0,0-6.3-12.68c-2.36-3.6-4.79-7.18-7.43-10.57a249,249,0,0,1-15.5-21.73A64,64,0,0,0,317,569.1a13.78,13.78,0,0,0-5.67-4.09,35.76,35.76,0,0,1-4.52-2.12c-2-1.12-3.65-2.63-4-5a3.75,3.75,0,0,0-2.89-3.17,27.54,27.54,0,0,0-6.41-1.74,2.38,2.38,0,0,1-2.27-1.53,18.12,18.12,0,0,0-2.77-4.63c-.63-.83-.21-1.58.87-1.68.27,0,.55.06.83.06a10.72,10.72,0,0,0,1.07-.1,11.34,11.34,0,0,0-3.5-5.43,61.11,61.11,0,0,0-5.87-4.68c-14.54-9.74-30.11-17.27-47.13-21.6a119.86,119.86,0,0,0-18.07-3l-.83,0a4.23,4.23,0,0,1-4.35-3.68c-.42-2-1-2.27-2.85-2.28a62.5,62.5,0,0,0-11.15,1.39c-19.94,3.54-37.8,11.88-54.15,23.66-6.67,4.8-13,10-19.27,15.31-.85.72-1.67,1.47-2.55,2.16-.52.41-1.14,1-1.81.38a2,2,0,0,1-.49-1.94,4.91,4.91,0,0,1,1.85-3.17,30.71,30.71,0,0,1,3.41-2.39,26.91,26.91,0,0,0,6.49-5.19c3.22-3.46,6.45-6.92,9.71-10.34a97.1,97.1,0,0,1,10.1-9.35,46.38,46.38,0,0,1,13.72-7.77c1.36-.46,2.52-.34,2.6.25A3,3,0,0,1,166,510a11.34,11.34,0,0,1-4,2.12c-1.38.52-3.08.6-3.71,2.33l-.26.1Z"/><path d="M309.18,450.74a3,3,0,0,0-.53-2.51c-1.23-1.67-.87-3.42-.13-5.15.39-.89.89-1.73,1.26-2.62a1.39,1.39,0,0,0-.47-1.84c-.9-.61-.85-1.31-.32-2.11a1.93,1.93,0,0,1,2.18-.84,4.68,4.68,0,0,1,1.81.94,9.7,9.7,0,0,1,1.94,2.16,5.77,5.77,0,0,0,4.43,2.71c16.21,2.4,32.2,5.88,48.12,9.73,26.85,6.51,53.29,14.47,79.72,22.47,6.91,2.09,13.89,3.88,20.94,5.44a92.48,92.48,0,0,1,16.48,5.75,17.24,17.24,0,0,1,5.23,3.37,9.51,9.51,0,0,1,2.41,3.35c.31.77.79,1.69.3,2.4-.66.94-1.79.56-2.71.31-10.58-2.83-21.19-5.61-31.74-8.55-21.78-6.08-43.51-12.32-65.3-18.37-18.85-5.23-37.89-9.68-57.06-13.59-6.11-1.25-12.27-2.26-18.42-3.36-.81-.15-1.67-.11-2.48-.26a3.22,3.22,0,0,0-3.6,1.44,1.14,1.14,0,0,1-.28.3c-.45.31-.89.82-1.47.54S309,451.54,309.18,450.74Zm5-6.16a5,5,0,0,0,2.78,1.08c2.05.39,4.1.75,6.13,1.18,23.49,5,46.87,10.34,70.09,16.43,17.71,4.65,35.4,9.38,52.8,15.12,7.77,2.56,15.56,5.08,23.52,7a66.3,66.3,0,0,0,11,1.86,18.84,18.84,0,0,0-3-1.17Q467.37,483,457.21,480c-22.59-6.77-45.23-13.35-68-19.28-11.81-3.07-23.71-5.8-35.55-8.78-8.33-2.1-16.54-4.73-25-6.23C323.88,444.83,319.13,444.08,314.18,444.58Z"/><path d="M484.18,452.7c-7.67.16-15.23-.94-22.78-2.14-12.48-2-24.76-5-37.16-7.36A173.56,173.56,0,0,0,387,439.9a206.52,206.52,0,0,1-21.26-.58,51.7,51.7,0,0,1-15-3.3,28.47,28.47,0,0,1-3-1.36c-1.47-.78-1.76-1.63-1.1-3.07a12.83,12.83,0,0,1,1.2-2.18,4.45,4.45,0,0,1,3.88-2.06c.84,0,1.67,0,2.5.12,10.37,1,20.73,2.12,31.1,3.08,7.75.72,15.52,1.15,23.26,1.93,9,.89,17.94,2,26.91,3s17.88,2.47,26.72,4.33c4.21.89,8.4,1.88,12.57,2.92a87.59,87.59,0,0,0,10.15,2.28,27.44,27.44,0,0,1,4.79,1.37,7.14,7.14,0,0,1,3.11,2c.75.83,1.59,1.74,1.29,2.93-.36,1.38-1.7,1.26-2.77,1.29C488.91,452.74,486.54,452.7,484.18,452.7ZM481.44,449l.1-.35a7.26,7.26,0,0,0-1.36-.63c-3.9-1-7.78-2-11.72-2.81-5.44-1.09-10.9-2-16.37-2.93-7.67-1.27-15.33-2.54-23-3.65-7.27-1-14.58-1.85-21.87-2.8q-11.55-1.5-23.18-2.37c-4.29-.32-8.6-.55-12.87-1.06a159.89,159.89,0,0,0-18.31-.61c-.4,0-1.19-.28-1.18.63.5.65,1.21.63,1.88.75a134.75,134.75,0,0,0,18.26,1.5,394,394,0,0,1,41.48,3.41c8.24,1.19,16.49,2.34,24.69,3.71,11.76,2,23.49,4.17,35.24,6.2C475.93,448.49,478.69,448.7,481.44,449Z"/><path d="M358.67,393.09c-5.36-.24-10.49-.59-15.44-2.17a31.8,31.8,0,0,1-9-4.33,17.75,17.75,0,0,1-7.72-13.24,90.32,90.32,0,0,1,2.83-31.4,20.63,20.63,0,0,1,5.6-9.61,48.57,48.57,0,0,1,9.2-7.14c5.73-3.47,12-4.35,18.49-3.53,12.5,1.58,21.1,8.63,26.66,19.66a52,52,0,0,1,5.21,20.05c.25,3.73,0,7.5,0,11.26a12.26,12.26,0,0,1-2.91,7.64,25.69,25.69,0,0,1-7.58,6.46,46.84,46.84,0,0,1-19.77,6C362.34,392.85,360.39,393,358.67,393.09Zm31-28.77c-.13-2.66-.12-5.87-.46-9a50.51,50.51,0,0,0-3.88-14.84c-5.84-13.47-21-17.16-31.79-14-7.31,2.13-12.57,6.92-16.68,13.1a44.76,44.76,0,0,0-7.12,20.68,33.79,33.79,0,0,0,1.48,14,18.83,18.83,0,0,0,10.88,11.91,35.44,35.44,0,0,0,11.71,2.75,52.94,52.94,0,0,0,20.14-2.45,37.07,37.07,0,0,0,11.78-6.07,8.22,8.22,0,0,0,3.52-6.73C389.25,370.69,389.47,367.77,389.64,364.32Z"/><path d="M341.2,480.79c1.42.33,3.59.77,5.74,1.31a138.47,138.47,0,0,1,22.25,8.15c3.05,1.35,6.08,2.73,9.08,4.2q15.15,7.43,30.79,13.75a108.69,108.69,0,0,1,14.63,7,49,49,0,0,1,7.76,5.59,30.67,30.67,0,0,1,4.74,5.25c.62.89,1.8,1.95,1.17,2.91-.78,1.2-2.24.42-3.41.15a139,139,0,0,1-25.79-9.35c-16.79-7.68-33.41-15.71-50-23.76-5.25-2.55-10.6-4.87-15.9-7.29-.63-.29-1.27-.57-1.91-.82a2.53,2.53,0,0,1-1.82-2.51c0-1,0-2,0-2.92C338.64,481.29,339.25,480.77,341.2,480.79ZM426,522l.33.16s0-.08-.07-.08h-.39c-1.31-1.76-3.38-2.36-5.2-3.31-19.08-10-38.91-18.33-58.71-26.75-5.87-2.5-11.72-5.05-17.77-7.12-.46-.16-1-.51-1.38.13.29.95,1.22,1.13,1.91,1.49,2.33,1.23,4.69,2.42,7.1,3.49q28.38,12.54,56.79,25A185.5,185.5,0,0,0,426,522Z"/><path d="M206.63,674.73a127.52,127.52,0,0,0-1-20.39,51.13,51.13,0,0,0-2.57-10.5,18.64,18.64,0,0,0-3.77-6.43,9.43,9.43,0,0,0-8.67-3,25.49,25.49,0,0,0-6.39,1.82,49.2,49.2,0,0,0-8,4.49,99.45,99.45,0,0,0-18.67,16.57,32.41,32.41,0,0,0-2.49,3.33,1.06,1.06,0,0,0,1.06,1.65c1.66-.1,3.33-.23,5-.46,2.47-.35,4.93-.84,7.4-1.2a48.34,48.34,0,0,1,10.82-.25,10.06,10.06,0,0,1,8.3,4.86c1.17,1.89,2.42,3.72,3.55,5.64,3.73,6.35,7.4,12.74,11.12,19.1a29.52,29.52,0,0,0,2,3.14c1.19,1.56,2.45,3.06,4.61,3.28a.91.91,0,0,1,.81.81c.15.69-.39,1-.83,1.29a3,3,0,0,1-2.79.3,9.36,9.36,0,0,1-3.46-2.26,26,26,0,0,1-3.82-4.93q-3.21-5.37-6.35-10.78a51.28,51.28,0,0,0-8.31-11.43A14.71,14.71,0,0,0,173,664.83a56.76,56.76,0,0,0-5.81.43c-3.71.52-7.45.87-11.18,1.22a13.2,13.2,0,0,1-3.32-.13,2.93,2.93,0,0,1-2.54-4,15,15,0,0,1,1-2.72,24.09,24.09,0,0,1,1.9-3.22,79.51,79.51,0,0,1,27.82-24.06,30.75,30.75,0,0,1,7-2.53c5.07-1.24,9.33.19,13,3.71a20.7,20.7,0,0,1,4.34,6.58c2.27,5,3.27,10.3,4.08,15.67a117.36,117.36,0,0,1,1,17.47c0,4.87-.09,9.74-.14,14.6,0,.7,0,1.4-.09,2.09-.16,1.6-.81,2.4-1.84,2.3s-1.45-.76-1.55-2.13c-.08-1.11-.05-2.22-.05-3.33Z"/><path d="M312.07,757.54c0,1.53.11,3.06,0,4.58-.21,2.53-1.53,3.76-4,3.87a12,12,0,0,1-6.76-1.72,23.51,23.51,0,0,1-5.43-4.5c-1.7-1.83-3.41-3.66-5-5.58-3.94-4.72-9.11-6.6-15.08-6.7-3.33-.06-6.66-.13-10-.12a37.79,37.79,0,0,1-7-.73,9.33,9.33,0,0,1-2.36-.72c-1.88-.88-2.37-2.12-1.73-4.06a20.92,20.92,0,0,1,3.88-6.37,103,103,0,0,1,16.28-16,67.81,67.81,0,0,1,9.58-6.63,29.23,29.23,0,0,1,5.68-2.54,8.62,8.62,0,0,1,8.21,1.63,17,17,0,0,1,3.6,4,42.54,42.54,0,0,1,4.92,10.54,102.49,102.49,0,0,1,4.3,19.9A77.78,77.78,0,0,1,312.07,757.54Zm-3.8.14a129.35,129.35,0,0,0-2-16.54A65.38,65.38,0,0,0,301,723.66a26.73,26.73,0,0,0-3.77-6,6,6,0,0,0-5.95-2.13,25.69,25.69,0,0,0-8.47,3.34c-8.87,5-15.95,12-21.93,20.17a12.72,12.72,0,0,0-1.07,1.78,1.3,1.3,0,0,0,1,1.89,8.46,8.46,0,0,0,1.23.17c3.74.3,7.48.53,11.21.91,4,.4,8,.75,12,1.38a12,12,0,0,1,8.2,5.18l4.16,5.73a15.22,15.22,0,0,0,9,5.64c1,.26,1.67-.15,1.73-1.16S308.27,758.65,308.27,757.68Z"/><path d="M843.69,734c1,0,1.23.73,1.6,1.27a32.78,32.78,0,0,0,5.05,6.08,6.23,6.23,0,0,1,2,4.4c.37,4.16.92,8.29,1.25,12.45.7,8.87,1.38,17.74,1.93,26.62.77,12.48,1.43,25,2.12,37.47.15,2.92.26,5.84.28,8.76a172.84,172.84,0,0,0,1.18,22,18,18,0,0,1-.24,5.81,7,7,0,0,1-2.64,4.57,2.11,2.11,0,0,1-1.14.3c-.54,0-.64-.51-.67-.89-.07-1.11-.08-2.23-.08-3.34,0-7.09.06-14.18-.12-21.27-.28-11.4-1-22.78-2.21-34.12-.92-9-1.77-18-2.85-27s-2.43-18.18-3.69-27.27c-.61-4.4-1.31-8.79-1.93-13.19A4.18,4.18,0,0,1,843.69,734Z"/><path d="M385.82,783.42c-.34-8.89-.65-17.78-.47-26.68,0-2.64.21-5.27.4-7.91.12-1.57.58-2,2-2.07a9.22,9.22,0,0,1,1.66.06c1,.11,1.4.66,1.32,1.74-.17,2.21-.34,4.43-.6,6.64a87.57,87.57,0,0,0-.22,13.74c.31,7.64.83,15.27,1,22.91a103,103,0,0,1-2,24.46,8.49,8.49,0,0,1-.48,1.58c-.07.15-.44.2-.68.23a.4.4,0,0,1-.33-.19,2.24,2.24,0,0,1-.3-.76c-.09-.69-.13-1.38-.16-2.08Q386.4,799.26,385.82,783.42Z"/><path d="M841.21,661.78c0,.9,0,1.59,0,2.29a1.31,1.31,0,0,1-1.28,1.35,15.44,15.44,0,0,1-1.67.07c-1.85,0-2.21-.35-2.34-2.12-.25-3.33-.47-6.65-.71-10a130.07,130.07,0,0,0-6.09-30.58,31.54,31.54,0,0,1-1.79-11.46c.11-2.35,0-4.72.09-7.08,0-.37.26-1,.5-1,.68-.15.83.49,1,1,.91,2.92,1.84,5.83,2.7,8.76a272.86,272.86,0,0,1,8.62,39.45C840.68,655.61,840.91,658.8,841.21,661.78Z"/><path d="M383.66,867.43c-3.15-.42-4.44-2.77-5-5.4a18.92,18.92,0,0,1,1.57-13.36,14.77,14.77,0,0,1,1.13-1.74,2.17,2.17,0,0,0,.23-2.34c-.23-.5-.47-1-.69-1.52a9.5,9.5,0,0,1-.1-7.29,11.62,11.62,0,0,1,.58-1.56c1.84-3.41,3.69-6.83,5.59-10.21a1.49,1.49,0,0,1,2.46-.2,2.91,2.91,0,0,1,.72,3.43,29.22,29.22,0,0,1-2.16,4c-1,1.52-2.1,2.94-3.08,4.44a7.45,7.45,0,0,0-1.05,2.25,1.8,1.8,0,0,0,2.08,2.29c3.53-.54,3.73-.28,2.52,2.86-.74,1.95-1.57,3.85-2.37,5.78a33.54,33.54,0,0,0-2.55,18.7Z"/><path d="M844,698a5.48,5.48,0,0,1-.59,3.23,34.35,34.35,0,0,0-2.44,6.64.79.79,0,0,1-.87.7c-.48-.06-.6-.5-.65-.91-.89-7.73-1.81-15.46-2.64-23.2-.34-3.18-.51-6.38-.72-9.57a16.06,16.06,0,0,1,0-2.5c.11-1.13.7-1.61,2-1.7a10.44,10.44,0,0,1,1.25,0c1.49.08,2,.5,2.08,2a236.31,236.31,0,0,0,2.45,24C843.89,697.18,843.91,697.6,844,698Z"/><path d="M352.1,166.22a9.78,9.78,0,0,1-1.23,5.6,8.47,8.47,0,0,1-7,4.61,21.78,21.78,0,0,1-3.33,0,7.16,7.16,0,0,1-7-6A16,16,0,0,1,335,159.88c2.5-4.65,6.4-5.74,11.33-4.26A7.43,7.43,0,0,1,351,160.1,13.48,13.48,0,0,1,352.1,166.22Zm-2.84.76a13,13,0,0,0-1.55-6.47c-1.77-3.37-4.78-4.14-8-2.13a6.37,6.37,0,0,0-2.42,2.77,15.52,15.52,0,0,0-1,9.75,4.56,4.56,0,0,0,3.93,3.81c4.85.76,9.46-.7,9-7C349.25,167.59,349.26,167.45,349.26,167Z"/><path d="M272.59,329.93a43.21,43.21,0,0,0-3.46,9.75,27.43,27.43,0,0,1-1.05,3.56,1.23,1.23,0,0,1-1.36.73,1.09,1.09,0,0,1-1-1.13,9.21,9.21,0,0,1,0-1.66A64.63,64.63,0,0,1,271,322.92a.74.74,0,0,1,1-.45.86.86,0,0,1,.49.57c.12,2.33.68,4.67,0,7Z"/><path d="M279.4,342.77a5.13,5.13,0,0,0,0,1.24c.85,3.62.2,4.07-4.12,5.05a5.7,5.7,0,0,1-1.24.06c-1.81,0-2.45-.88-2-2.68.92-3.58,3-6.5,5.3-9.31a1,1,0,0,1,1.67.31,8.65,8.65,0,0,1,.4,2c.07,1.11,0,2.22,0,3.33Z"/><path d="M382.47,741.42a19.06,19.06,0,0,1,1.83-7.4,1.23,1.23,0,0,1,1.74-.57,2.57,2.57,0,0,1,1.93,2.81,2.71,2.71,0,0,1-.11.82c-1,2.54-2.09,5.08-3.17,7.6-.21.48-1,.44-1.39,0C382.5,743.81,382.49,742.71,382.47,741.42Z"/><path d="M380.89,890.64a10.57,10.57,0,0,1,3-6.18,1.43,1.43,0,0,1,2.13.38,4.09,4.09,0,0,1,.48,3.55,17.3,17.3,0,0,1-2.72,5.49,1.24,1.24,0,0,1-2.06-.11A4.52,4.52,0,0,1,380.89,890.64Z"/><path d="M383.52,867.57c.81-.12,1.66-.35,2.24.5,2,2.89.86,8.06-2.1,9.85a1.4,1.4,0,0,1-1.54.16,1.23,1.23,0,0,1-.51-1.43c.56-2.54,1.15-5.07,1.73-7.61.12-.53.22-1.07.32-1.61Z"/><path d="M272.49,330c.56-.31,1.48-1.07,1.67-.15,1,4.78.6,9.34-2.94,13.13a2.55,2.55,0,0,1-1.07.59.68.68,0,0,1-.91-.54c-.26-1,.32-1.88.67-2.76a37.71,37.71,0,0,0,2.68-10.38Z"/><path d="M285.59,347.23c0,.3.1.62,0,.83-.75,1.47-1.5,2.95-2.33,4.37a1.21,1.21,0,0,1-2.05-.07,3.38,3.38,0,0,1,.15-3.88c.78-1.2,1.77-2.12,3.37-1.94A1,1,0,0,1,285.59,347.23Z"/><path d="M210.13,459.86a2.32,2.32,0,0,1,.8.08,6.44,6.44,0,0,1,2.84,2.35,2.52,2.52,0,0,1,.38,2.7c-.32.62-1.43.38-2.56-.48a4.8,4.8,0,0,1-2.2-3.79A.89.89,0,0,1,210.13,459.86Z"/><path d="M262.07,371.75c-.94,0-1.8,0-2.28-.88a1.92,1.92,0,0,1,1.64-2.93,3,3,0,0,1,2.86,1.3,1.52,1.52,0,0,1-1.1,2.46C262.78,371.74,262.37,371.74,262.07,371.75Z"/><path d="M288.76,351.35a1.83,1.83,0,0,1-2.16,1.36,1.08,1.08,0,0,1-1-1.08,1.57,1.57,0,0,1,1.88-1.58A1.35,1.35,0,0,1,288.76,351.35Z"/><path d="M355.46,356.51a10.83,10.83,0,0,1-1,5.6,3.84,3.84,0,0,1-3.21,2.32,16.89,16.89,0,0,0-2.45.39c-.53.12-1.11.35-1.15,1s.66.82,1.15.87a18,18,0,0,0,2.07,0c.55,0,1.12,0,1.27.72a1.64,1.64,0,0,1-.47,1.52,5.86,5.86,0,0,1-1.26,1.07,9.35,9.35,0,0,1-11.64-2.33c-3.52-4.51-4.08-12.4-1.21-17.34,2.26-3.89,5.8-5.44,10.14-5.26a6.91,6.91,0,0,1,6.21,4.19A15,15,0,0,1,355.46,356.51Zm-5.95,1.2a6.65,6.65,0,0,0,.09.89c.09.39.26.78.75.72s.61-.42.67-.82a2.63,2.63,0,0,0-.3-1.9c-.06-.1-.2-.23-.27-.22-.23.07-.55.14-.64.31A4.13,4.13,0,0,0,349.51,357.71Z"/><path d="M344.53,164.39a6.27,6.27,0,0,1-1,4,2.86,2.86,0,0,1-3.22,1.24,2.75,2.75,0,0,1-2.12-2.27,7.06,7.06,0,0,1,.42-4,3.43,3.43,0,0,1,3.55-2.26c1.22.17,2.15,1.34,2.36,3C344.54,164.34,344.54,164.61,344.53,164.39Z"/></svg>